<svg xmlns="http://www.w3.org/2000/svg" viewBox="0 0 512 512">
  <defs>
    <linearGradient id="bgGrad" x1="0%" y1="0%" x2="100%" y2="100%">
      <stop offset="0%" style="stop-color:#0f172a"/>
      <stop offset="100%" style="stop-color:#1e293b"/>
    </linearGradient>
    <linearGradient id="shieldGrad" x1="0%" y1="0%" x2="0%" y2="100%">
      <stop offset="0%" style="stop-color:#10b981"/>
      <stop offset="100%" style="stop-color:#059669"/>
    </linearGradient>
    <linearGradient id="goldGrad" x1="0%" y1="0%" x2="100%" y2="100%">
      <stop offset="0%" style="stop-color:#fbbf24"/>
      <stop offset="100%" style="stop-color:#f59e0b"/>
    </linearGradient>
  </defs>

  <!-- Background with rounded corners -->
  <rect width="512" height="512" rx="96" fill="url(#bgGrad)"/>

  <!-- Shield shape -->
  <path d="M256 80
           L400 130
           L400 260
           Q400 380 256 440
           Q112 380 112 260
           L112 130 Z"
        fill="url(#shieldGrad)"
        opacity="0.95"/>

  <!-- Inner shield highlight -->
  <path d="M256 110
           L370 150
           L370 255
           Q370 355 256 405
           Q142 355 142 255
           L142 150 Z"
        fill="none"
        stroke="rgba(255,255,255,0.2)"
        stroke-width="3"/>

  <!-- Bitcoin-style up arrow in shield -->
  <path d="M256 170
           L320 250
           L290 250
           L290 320
           L222 320
           L222 250
           L192 250 Z"
        fill="url(#goldGrad)"/>

  <!-- Small check mark for safety -->
  <path d="M200 360 L240 390 L310 310"
        fill="none"
        stroke="white"
        stroke-width="12"
        stroke-linecap="round"
        stroke-linejoin="round"
        opacity="0.9"/>
</svg>
